<svg xml:space="preserve" viewBox="0 0 2902.68 2902.68" height="2902.68px" width="2902.68px" y="0px" x="0px" xmlns:xlink="http://www.w3.org/1999/xlink" xmlns="http://www.w3.org/2000/svg" id="图层_1" version="1.1">
<g>
	<path d="M1451.339,2807.296c-183.049,0-360.627-35.853-527.802-106.562
		c-80.348-33.984-157.843-76.048-230.333-125.021c-71.798-48.506-139.314-104.211-200.671-165.568
		c-61.357-61.357-117.063-128.872-165.568-200.671c-48.973-72.489-91.036-149.984-125.021-230.332
		c-70.709-167.176-106.562-344.754-106.562-527.803s35.853-360.627,106.562-527.803c33.984-80.348,76.047-157.844,125.021-230.333
		c48.505-71.798,104.211-139.313,165.568-200.671c61.357-61.357,128.873-117.063,200.671-165.568
		c72.489-48.973,149.984-91.036,230.333-125.02c167.175-70.71,344.754-106.563,527.802-106.563
		c183.049,0,360.628,35.853,527.804,106.562c80.348,33.984,157.843,76.048,230.333,125.021
		c71.798,48.506,139.313,104.211,200.671,165.568c61.357,61.357,117.063,128.873,165.569,200.671
		c48.973,72.489,91.035,149.985,125.02,230.333c70.709,167.176,106.562,344.754,106.562,527.803s-35.853,360.627-106.562,527.803
		c-33.984,80.348-76.047,157.843-125.02,230.332c-48.506,71.799-104.211,139.313-165.569,200.671
		c-61.357,61.357-128.873,117.063-200.671,165.568c-72.49,48.973-149.985,91.036-230.333,125.021
		C1811.967,2771.443,1634.388,2807.296,1451.339,2807.296z" fill="#C8C7CE"></path>
	<path d="M1451.339,105.383c743.354,0,1345.958,602.605,1345.958,1345.957s-602.604,1345.956-1345.958,1345.956
		c-743.351,0-1345.957-602.604-1345.957-1345.956S707.988,105.383,1451.339,105.383 M1451.339,85.383
		c-92.666,0-185.278,9.337-275.267,27.751c-87.711,17.948-173.987,44.73-256.431,79.601
		c-80.943,34.236-159.011,76.61-232.035,125.944C615.28,367.541,547.27,423.655,485.462,485.463
		c-61.807,61.807-117.921,129.818-166.784,202.144c-49.334,73.024-91.708,151.092-125.944,232.035
		c-34.871,82.444-61.652,168.72-79.601,256.431c-18.414,89.989-27.751,182.602-27.751,275.268
		c0,92.665,9.337,185.278,27.751,275.267c17.949,87.712,44.73,173.987,79.601,256.432c34.236,80.942,76.609,159.011,125.944,232.034
		c48.862,72.326,104.977,140.337,166.784,202.145C547.27,2479.023,615.28,2535.139,687.606,2584
		c73.024,49.335,151.092,91.708,232.035,125.943c82.444,34.871,168.72,61.653,256.431,79.602
		c89.989,18.414,182.601,27.751,275.267,27.751c92.666,0,185.279-9.337,275.268-27.751c87.712-17.948,173.988-44.73,256.432-79.602
		c80.943-34.235,159.011-76.608,232.035-125.943c72.326-48.861,140.337-104.977,202.144-166.783
		c61.807-61.808,117.922-129.818,166.783-202.145c49.334-73.023,91.708-151.092,125.944-232.034
		c34.871-82.444,61.652-168.72,79.601-256.432c18.414-89.988,27.751-182.602,27.751-275.267c0-92.666-9.337-185.278-27.751-275.268
		c-17.948-87.711-44.729-173.986-79.601-256.431c-34.235-80.943-76.61-159.011-125.944-232.035
		c-48.862-72.325-104.976-140.337-166.783-202.144c-61.807-61.809-129.818-117.922-202.144-166.784
		c-73.024-49.334-151.092-91.708-232.035-125.944c-82.444-34.87-168.72-61.652-256.432-79.601
		C1636.618,94.72,1544.005,85.383,1451.339,85.383L1451.339,85.383z" fill="#8D5966"></path>
</g>
<g>
	<path d="M1451.34,2655.67c-162.562,0-320.287-31.85-468.795-94.662c-71.372-30.188-140.208-67.55-204.593-111.047
		c-63.761-43.076-123.717-92.544-178.203-147.03c-54.486-54.485-103.954-114.441-147.03-178.201
		c-43.498-64.386-80.86-133.22-111.048-204.592c-62.813-148.508-94.663-306.233-94.663-468.795
		c0-162.563,31.849-320.288,94.663-468.797c30.188-71.373,67.55-140.208,111.048-204.593
		c43.076-63.761,92.543-123.718,147.029-178.204c54.486-54.486,114.442-103.954,178.203-147.029
		c64.385-43.498,133.221-80.86,204.593-111.048c148.508-62.814,306.233-94.663,468.795-94.663
		c162.563,0,320.289,31.849,468.797,94.663c71.373,30.188,140.208,67.55,204.593,111.048
		c63.761,43.075,123.716,92.543,178.202,147.029c54.486,54.486,103.954,114.443,147.029,178.204
		c43.498,64.385,80.859,133.22,111.047,204.593c62.814,148.509,94.662,306.234,94.662,468.797
		c0,162.562-31.849,320.287-94.662,468.794c-30.187,71.373-67.549,140.207-111.047,204.593
		c-43.075,63.76-92.543,123.716-147.029,178.201c-54.486,54.486-114.442,103.954-178.202,147.03
		c-64.386,43.497-133.22,80.859-204.593,111.047C1771.629,2623.82,1613.902,2655.67,1451.34,2655.67z" fill="#E4E4EC"></path>
	<path d="M1451.34,297.009c637.523,0,1154.33,516.812,1154.33,1154.334c0,637.519-516.807,1154.327-1154.33,1154.327
		c-637.52,0-1154.331-516.809-1154.331-1154.327C297.009,813.82,813.82,297.009,1451.34,297.009 M1451.34,197.009
		c-85.04,0-170.056,8.573-252.686,25.482c-80.582,16.489-159.845,41.094-235.588,73.13
		c-74.345,31.446-146.044,70.362-213.104,115.667c-66.398,44.857-128.832,96.37-185.568,153.106
		c-56.736,56.736-108.249,119.17-153.106,185.568c-45.305,67.061-84.221,138.759-115.667,213.105
		c-32.037,75.743-56.641,155.006-73.13,235.588c-16.909,82.631-25.482,167.646-25.482,252.687
		c0,85.039,8.573,170.055,25.482,252.685c16.489,80.582,41.094,159.845,73.13,235.587c31.445,74.347,70.362,146.045,115.667,213.104
		c44.857,66.398,96.37,128.832,153.106,185.568c56.736,56.735,119.17,108.248,185.568,153.105
		c67.061,45.305,138.759,84.22,213.105,115.665c75.743,32.036,155.006,56.642,235.587,73.13
		c82.631,16.909,167.646,25.482,252.686,25.482s170.056-8.573,252.686-25.482c80.582-16.488,159.845-41.094,235.588-73.13
		c74.346-31.445,146.046-70.36,213.105-115.666c66.399-44.856,128.832-96.369,185.569-153.104
		c56.735-56.736,108.248-119.17,153.105-185.568c45.305-67.06,84.22-138.758,115.666-213.104
		c32.036-75.742,56.641-155.005,73.13-235.587c16.908-82.63,25.481-167.646,25.481-252.685c0-85.04-8.573-170.056-25.481-252.687
		c-16.489-80.582-41.094-159.845-73.13-235.588c-31.446-74.346-70.361-146.045-115.666-213.105
		c-44.857-66.398-96.369-128.832-153.105-185.568c-56.736-56.736-119.17-108.249-185.567-153.106
		c-67.061-45.305-138.76-84.221-213.105-115.667c-75.743-32.036-155.006-56.641-235.588-73.13
		C1621.396,205.582,1536.38,197.009,1451.34,197.009L1451.34,197.009z" fill="#7D7F88"></path>
</g>
<rect height="1703.739" width="1703.737" fill="#4881AB" transform="matrix(0.7071 -0.7071 0.7071 0.7071 -602.6978 1451.9744)" y="601.638" x="599.471"></rect>
<polygon points="2387.96,1839.301 2775.921,1451.34 
	2387.96,1063.379 2387.96,514.719 1839.301,514.719 1451.341,126.759 1063.38,514.719 514.72,514.719 514.72,1063.38 
	126.758,1451.341 514.72,1839.303 514.72,2387.961 1063.378,2387.961 1451.339,2775.922 1839.3,2387.961 2387.96,2387.961" stroke-miterlimit="10" stroke-width="30" stroke="#4881AB" fill="none"></polygon>
<g>
	<path d="M2008.658,749.242c-227.712-60.073-301.431,194.396-322.518,303.557
		c-72.124-27.467-151.513-42.707-234.978-42.707s-163.031,15.24-234.977,42.707c-20.911-109.16-94.807-363.808-322.519-303.557
		c-275.026,72.655-282.646,475.98,9.569,582.837c-29.948,62.731-46.429,131.665-46.429,204.144
		c0,65.213,13.468,127.768,37.923,185.359c-33.315,38.809-51.745,81.693-51.745,126.881c0,173.486,272.191,314.013,608.177,314.013
		s608.178-140.526,608.178-314.013c0-45.188-18.43-88.072-51.745-126.881c24.455-57.592,37.922-120.146,37.922-185.359
		c0-72.301-16.48-141.412-46.428-204.144C2291.128,1225.223,2283.685,821.897,2008.658,749.242z" fill="#BFB8B2"></path>
</g>
<path d="M1451.162,2099.744c-315.253,0-574.508-123.869-605.165-282.646c-1.949,10.277-3.013,20.732-3.013,31.365
	c0,173.486,272.191,314.013,608.177,314.013s608.178-140.526,608.178-314.013c0-10.633-1.063-21.088-3.013-31.365
	C2025.671,1975.875,1766.415,2099.744,1451.162,2099.744z" fill="#A8A4A1"></path>
<path d="M1451.162,2188.348c-166.753,0-323.759-33.67-442.31-94.983
	c-123.869-63.972-192.094-150.981-192.094-244.901c0-45.896,16.126-89.844,48.023-131.311
	c-22.683-58.125-34.201-118.906-34.201-181.107c0-65.566,12.759-129.539,37.922-190.32c-65.39-29.24-118.907-74.959-155.766-133.438
	c-37.567-59.542-56.352-131.311-52.985-202.017c3.19-65.39,24.455-126.35,61.668-176.145
	c40.227-54.049,97.464-91.971,165.512-109.869c24.986-6.557,49.441-9.924,72.655-9.924c46.783,0,89.667,13.468,127.413,39.872
	c31.365,21.974,59.188,52.985,82.933,92.325c34.024,56.352,54.226,120.324,66.099,171.715
	c68.757-22.684,141.058-34.201,215.308-34.201s146.551,11.518,215.308,34.201c11.873-51.213,32.075-115.363,66.099-171.715
	c23.746-39.34,51.567-70.529,82.934-92.325c37.745-26.581,80.629-39.872,127.412-39.872c23.214,0,47.669,3.367,72.655,9.924
	c68.048,17.898,125.286,55.998,165.512,109.869c37.214,49.795,58.479,110.755,61.668,176.145
	c3.367,70.706-15.417,142.475-52.985,202.017c-36.859,58.302-90.199,104.021-155.766,133.438
	c25.164,60.781,37.923,124.754,37.923,190.32c0,62.023-11.519,122.982-34.201,181.107c31.897,41.289,48.023,85.414,48.023,131.311
	c0,93.92-68.225,180.752-192.093,244.901C1774.922,2154.678,1617.738,2188.348,1451.162,2188.348z M959.411,765.899
	c-18.606,0-38.277,2.835-58.833,8.151C768.735,808.784,716.99,920.248,712.56,1012.75
	c-4.962,100.654,44.479,238.345,199.891,295.229l26.758,9.746l-12.05,25.164c-29.062,61.314-43.947,126.35-43.947,193.334
	c0,60.428,12.05,119.438,35.973,175.436l6.202,14.354l-10.277,12.051c-30.303,35.264-45.543,72.479-45.543,110.4
	c0,73.896,58.302,144.602,164.095,199.359c111.109,57.415,259.433,88.958,417.502,88.958c158.07,0,306.57-31.543,417.502-88.958
	c105.793-54.58,164.095-125.463,164.095-199.359c0-37.922-15.417-75.137-45.542-110.4l-10.278-12.051l6.203-14.354
	c23.923-56.175,35.973-115.186,35.973-175.436c0-66.984-14.708-132.02-43.948-193.334l-12.05-25.164l26.758-9.746
	c155.411-56.884,204.852-194.574,199.891-295.229c-4.43-92.502-56.352-203.966-188.018-238.699
	c-20.556-5.493-40.404-8.151-58.833-8.151c-157.715,0-213.89,203.967-230.725,291.685l-5.848,30.657l-29.771-11.342
	c-71.238-27.29-147.083-40.935-225.409-40.935c-78.326,0-154.171,13.822-225.408,40.935l-29.771,11.342l-5.848-30.657
	C1173.3,969.866,1117.125,765.899,959.411,765.899z" fill="#20455B"></path>
<path d="M1156.111,1892.41c0,106.482,132.1,192.803,295.052,192.803c162.952,0,295.051-86.32,295.051-192.803l0,0
	c0-106.482-132.098-192.802-295.051-192.802C1288.21,1699.608,1156.111,1785.928,1156.111,1892.41L1156.111,1892.41z" fill="#E0DCDA"></path>
<path d="M1482.351,1999.444h-62.555c-12.05,0-21.796-9.569-21.796-21.265v-68.049l51.745-27.467l54.403,27.467
	v68.049C1504.148,1989.875,1494.401,1999.444,1482.351,1999.444z" fill="#FFFFFF"></path>
<path d="M1847.045,1708.114l-3.722-16.835l-295.583,62.377c-0.532-1.771-1.241-3.543-1.949-5.139
	c74.073-30.656,283.178-114.299,422.109-138.931l-3.189-16.835c-142.298,25.341-356.542,111.287-428.666,141.234
	c-17.189-18.606-48.732-31.188-84.883-31.188s-67.693,12.582-84.882,31.188c-72.124-29.947-286.368-115.894-428.666-141.234
	l-3.189,16.835c138.754,24.81,347.859,108.274,422.109,138.931c-0.709,1.771-1.417,3.367-1.949,5.139l-295.583-62.377l-3.722,16.835
	l297.886,62.909c0.532,4.784,1.95,9.215,4.076,13.645h-261.559v17.189h274.141c15.24,14.354,39.518,24.277,67.339,26.936v23.746
	c0,2.835,0.177,5.67,0.532,8.506c-1.949,11.164-7.62,21.265-16.303,28.885c-10.987,9.569-25.164,14.177-39.872,12.582
	c-43.062-4.431-107.92-16.48-172.955-49.087l-12.05,22.86c68.579,34.378,136.981,47.137,182.346,51.744
	c2.658,0.354,5.494,0.354,8.152,0.354c19.138,0,37.922-6.911,52.276-19.493c4.607-4.076,8.506-8.506,12.05-13.291
	c3.367,4.785,7.443,9.393,12.05,13.291c14.354,12.582,33.138,19.493,52.276,19.493c2.658,0,5.316-0.177,8.151-0.354
	c45.365-4.607,113.768-17.366,182.347-51.744l-12.05-22.86c-65.035,32.606-129.894,44.656-172.955,49.087
	c-14.708,1.418-28.885-3.013-39.872-12.582c-8.683-7.62-14.354-17.898-16.303-28.885c0.354-2.836,0.532-5.671,0.532-8.506v-23.746
	c27.999-2.48,52.099-12.582,67.339-26.936h274.141v-17.189H1545.26c2.126-4.43,3.367-8.86,4.076-13.645L1847.045,1708.114z" fill="#5B4E45"></path>
<path d="M1201.122,1457.188c0,31.221,26.023,56.529,58.125,56.529c32.101,0,58.124-25.309,58.124-56.529
	s-26.023-56.529-58.124-56.529C1227.145,1400.658,1201.122,1425.967,1201.122,1457.188z" fill="#5B4E45"></path>
<path d="M1584.954,1457.188c-0.026,31.221,25.975,56.551,58.077,56.578c32.101,0.024,58.146-25.264,58.172-56.484
	c0-0.031,0-0.062,0-0.094c0.026-31.221-25.975-56.551-58.076-56.577c-32.102-0.024-58.146,25.263-58.172,56.483
	C1584.954,1457.126,1584.954,1457.156,1584.954,1457.188z" fill="#5B4E45"></path>
<path d="M801.696,857.693c0,0-130.071,144.956-9.924,341.834c51.391,84.174,155.589,97.996,155.589,97.996
	s57.238-101.363,113.235-142.652C1060.596,1154.871,985.815,895.438,801.696,857.693z M2098.858,857.693
	c-184.296,37.745-259.078,297.178-259.078,297.178c56.175,41.289,113.236,142.652,113.236,142.652s104.198-13.645,155.588-97.996
	C2228.928,1002.473,2098.858,857.693,2098.858,857.693z" fill="#969290"></path>
</svg>
